<?xml version="1.0" encoding="UTF-8"?>
<svg id="Layer_1" data-name="Layer 1" xmlns="http://www.w3.org/2000/svg" viewBox="0 0 64 64">
  <defs>
    <style>
      .cls-1 {
        fill: #052e29;
      }

      .cls-2 {
        fill: #12a594;
      }
    </style>
  </defs>
  <path class="cls-2" d="m50.46,9.25h-9.03c-1.13,0-2.18.58-2.79,1.53l-6.32,9.97-6.06-9.92c-.6-.98-1.66-1.58-2.81-1.58h-10.62c-1.13,0-2.18.58-2.79,1.53l-4.65,7.33c-.68,1.07-.68,2.44-.01,3.51l19.71,31.57c.6.96,1.66,1.55,2.8,1.55h8.79c1.13,0,2.18-.58,2.79-1.53l19.11-30.16c.67-1.06.68-2.41.03-3.48l-5.34-8.74c-.6-.98-1.66-1.58-2.81-1.58Z"/>
  <path class="cls-1" d="m57.52,20.91c.15.24.14.55,0,.78l-19.69,31.07c-.14.22-.37.35-.63.35h-9.93c-.58,0-.94-.64-.63-1.14L51.38,12.93c.29-.46.97-.46,1.26.01l4.87,7.98Z"/>
  <path class="cls-1" d="m31.36,22.29h0s-4.42,6.97-4.42,6.97c-.29.46-.97.46-1.26-.01L15.16,12.02c-.3-.49.05-1.13.63-1.13h8.18c.26,0,.5.13.63.36l6.75,11.05Z"/>
</svg>